<?xml version="1.0" encoding="iso-8859-1"?>
<!-- Uploaded to: SVG Repo, www.svgrepo.com, Generator: SVG Repo Mixer Tools -->
<svg fill="#000000" height="800px" width="800px" version="1.1" id="Capa_1" xmlns="http://www.w3.org/2000/svg" xmlns:xlink="http://www.w3.org/1999/xlink" 
	 viewBox="0 0 511.017 511.017" xml:space="preserve">
<g>
	<path d="M423.423,109.392c-9.987-22.596-24.218-42.666-42.298-59.651c-37.3-35.042-86.1-52.575-137.392-49.368
		c-44.74,2.796-86.951,22.212-118.856,54.673c-31.896,32.45-50.601,74.989-52.669,119.781
		c-3.148,68.212,31.473,132.108,90.354,166.756c13.228,7.783,21.445,22.548,21.445,38.532c0,31.901,11.395,62.752,32.086,86.868
		c21.011,24.49,49.846,39.849,81.193,43.248c4.841,0.525,9.65,0.785,14.424,0.785c31.49-0.001,61.221-11.32,84.926-32.594
		c26.927-24.166,42.371-58.762,42.371-94.918v-200C439.007,157.724,433.764,132.789,423.423,109.392z M424.007,383.505
		c0,31.903-13.628,62.431-37.389,83.755c-24.086,21.616-55.239,31.583-87.714,28.06c-27.541-2.986-52.907-16.518-71.426-38.102
		c-18.359-21.399-28.47-48.781-28.47-77.102c0-21.275-11.05-40.994-28.838-51.46C116.095,296.838,84.3,238.16,87.192,175.52
		c1.897-41.097,19.08-80.147,48.382-109.959c29.309-29.818,68.052-47.652,109.094-50.217c3.667-0.229,7.317-0.343,10.952-0.343
		c43.078,0,83.65,16,115.234,45.673c34.276,32.201,53.153,75.823,53.153,122.831V383.505z"/>
	<path d="M320.234,135.563L320.234,135.563C320.234,135.563,320.234,135.563,320.234,135.563l18.49-11.745
		c11.314-7.188,18.189-19.501,18.388-32.94c0.197-13.239-6.186-25.548-17.072-32.926c-5.473-3.709-11.238-7.088-17.133-10.042
		c-3.704-1.855-8.209-0.357-10.065,3.346c-1.855,3.703-0.357,8.21,3.346,10.065c5.312,2.661,10.505,5.705,15.438,9.048
		c6.789,4.602,10.612,11.995,10.489,20.286c-0.125,8.369-4.398,16.033-11.433,20.502L312.193,122.9
		c-2.714,1.646-15.109,1.636-22.513,1.631c-14.397-0.012-27.984-0.021-35.659,5.082c-3.449,2.293-4.387,6.949-2.093,10.398
		c1.444,2.172,3.826,3.349,6.252,3.349c1.426,0,2.869-0.406,4.146-1.255c3.414-2.27,14.669-2.542,23.682-2.57l-128.024,81.323
		c-7.034,4.468-15.778,5.074-23.39,1.622c-7.62-3.456-12.718-10.148-13.986-18.361c-1.38-8.936-1.868-18.062-1.449-27.122
		c1.477-31.985,14.692-62.779,37.211-86.707c22.45-23.854,52.268-38.932,83.962-42.458c4.117-0.458,7.083-4.167,6.625-8.283
		s-4.168-7.082-8.283-6.625c-35.23,3.919-68.339,20.641-93.227,47.085c-24.974,26.535-39.631,60.733-41.273,96.295
		c-0.464,10.055,0.078,20.183,1.609,30.103c2.026,13.113,10.48,24.228,22.615,29.731c5.257,2.385,10.85,3.564,16.418,3.563
		c7.397,0,14.751-2.081,21.21-6.185L320.234,135.563z"/>
	<path d="M270.677,47.846c5.083,0.567,10.184,1.432,15.158,2.57c0.563,0.129,1.125,0.191,1.68,0.191
		c3.419,0,6.509-2.354,7.304-5.828c0.924-4.038-1.6-8.06-5.638-8.985c-5.528-1.265-11.194-2.226-16.842-2.856
		c-4.12-0.46-7.826,2.506-8.285,6.623C263.595,43.677,266.561,47.387,270.677,47.846z"/>
	<path d="M236.447,314.24l34.05-54.776c2.187-3.518,1.107-8.143-2.41-10.329c-3.518-2.187-8.143-1.107-10.329,2.41l-34.05,54.776
		c-2.525,4.062-6.503,6.705-11.201,7.443c-4.906,0.772-9.95-0.68-13.845-3.979c-3.831-3.245-7.957-6.175-12.264-8.709
		c-4.11-2.418-8.134-5.076-11.96-7.899c-4.622-3.411-7.159-8.61-6.962-14.267c0.19-5.458,2.956-10.276,7.586-13.218l0.159-0.101
		c8.131-5.337,18.982-4.638,30.468-3.896c11.192,0.724,22.766,1.472,33.042-3.418c3.74-1.78,5.33-6.255,3.55-9.995
		s-6.255-5.33-9.995-3.55c-6.755,3.215-15.922,2.621-25.629,1.994c-0.522-0.034-1.051-0.067-1.579-0.101l60.668-38.537
		c4.228-2.686,8.228-1.175,10.561,1.135c2.322,2.299,3.865,6.265,1.232,10.5l-4.4,7.079c-2.187,3.518-1.108,8.143,2.409,10.33
		c3.518,2.188,8.143,1.108,10.329-2.41l4.402-7.081c5.913-9.512,4.54-21.197-3.417-29.077c-7.97-7.893-19.688-9.154-29.158-3.138
		l-90.684,57.603c-0.023,0.014-0.044,0.03-0.066,0.045c-0.015,0.01-0.03,0.018-0.045,0.027c-0.019,0.013-0.035,0.027-0.053,0.04
		c-8.77,5.645-14.007,14.832-14.37,25.245c-0.367,10.519,4.51,20.56,13.046,26.859c4.243,3.131,8.704,6.077,13.26,8.758
		c3.571,2.102,6.995,4.533,10.175,7.227c5.94,5.031,13.367,7.737,20.94,7.737c1.641,0,3.289-0.127,4.93-0.385
		C223.777,327.177,231.654,321.95,236.447,314.24z"/>
	<path d="M399.507,216.008c-4.142,0-7.5,3.358-7.5,7.5v16c0,4.143,3.358,7.5,7.5,7.5s7.5-3.357,7.5-7.5v-16
		C407.007,219.366,403.649,216.008,399.507,216.008z"/>
	<path d="M349.42,166.836l-74.218,118.033c-0.001,0.001-0.002,0.002-0.002,0.003c0,0.001-0.001,0.001-0.001,0.002l-42.177,67.076
		c-8.3,13.353-12.493,28.666-12.126,44.286c0.373,15.849,5.429,30.89,14.625,43.498c15.909,21.815,39.68,35.915,65.216,38.684
		c3.588,0.389,7.212,0.586,10.771,0.586c52.659,0,95.5-42.841,95.5-95.5v-112c0-4.143-3.358-7.5-7.5-7.5s-7.5,3.357-7.5,7.5v112
		c0,20.091-7.415,38.471-19.63,52.59c-0.022,0.021-0.046,0.039-0.068,0.06c-4.525,4.4-16.813,8.324-27.89,7.154
		c-3.499-0.37-9.798-1.633-12.675-5.942c-2.3-3.445-6.958-4.372-10.402-2.071c-3.444,2.3-4.372,6.958-2.071,10.402
		c4.556,6.821,12.319,11.085,22.482,12.39c-9.344,3.803-19.55,5.917-30.244,5.917c-3.021,0-6.102-0.168-9.154-0.499
		c-21.346-2.314-41.289-14.2-54.714-32.609c-14.863-20.38-15.618-48.923-1.898-70.993l42.159-67.049
		c6.359-10.111,18.73-15.631,30.694-20.969c12.818-5.72,24.926-11.122,29.247-22.355c1.487-3.866-0.441-8.205-4.308-9.692
		c-3.867-1.487-8.205,0.441-9.692,4.308c-2.095,5.447-11.452,9.622-21.358,14.042c-1.278,0.57-2.576,1.152-3.88,1.743l53.516-85.109
		c4.796-7.629,12.92-8.502,18.42-6.933c5.514,1.573,11.421,6.316,11.467,14.911l0.002,8.708c0,4.142,3.358,7.5,7.5,7.5
		s7.5-3.358,7.5-7.5l-0.002-8.792c-0.074-13.916-8.847-25.397-22.35-29.251C371.051,149.581,356.891,154.954,349.42,166.836z"/>
	<path d="M228.639,138.256c-8.825,2.344-16.957,8.798-17.854,9.527c-3.218,2.608-3.711,7.331-1.103,10.549
		c1.482,1.828,3.646,2.777,5.83,2.777c1.659,0,3.33-0.548,4.719-1.674c1.63-1.321,7.38-5.385,12.26-6.681
		c4.003-1.063,6.386-5.171,5.323-9.174C236.749,139.576,232.646,137.193,228.639,138.256z"/>
	<path d="M330.825,392.312c-2.921-2.937-7.669-2.949-10.607-0.027c-1.216,1.21-11.848,12.185-10.501,24.689
		c0.415,3.846,3.666,6.698,7.448,6.698c0.268,0,0.54-0.014,0.813-0.044c4.118-0.443,7.097-4.142,6.654-8.26
		c-0.457-4.236,3.971-10.23,6.166-12.449C333.733,399.998,333.746,395.249,330.825,392.312z"/>
</g>
</svg>