<svg xmlns="http://www.w3.org/2000/svg" viewBox="0 0 512 512" style="enable-background:new 0 0 512 512" xml:space="preserve"><path style="fill:#cecccc" d="M315.44 198.233v-55.077h-36.075v95.793z"/><path style="fill:#dde8ed" d="M471.519 334.394v-60.409h.959l-96.557-108.982-96.556 108.982h.957v137.976h191.197v-84.664"/><path style="fill:#c17a49" d="M379.049 294.049h-6.562c-21.759 0-39.394 17.636-39.394 39.394v78.518h85.35v-78.518c0-21.758-17.635-39.394-39.394-39.394z"/><path style="fill:#f44242" d="m375.921 165.003 96.372 108.771h30.734L375.77 130.142 248.509 273.774h31.042z"/><path style="fill:#ffa233" d="M67.327 118.441c6.609 6.611 15.74 10.7 25.826 10.7 20.175 0 36.528-16.355 36.528-36.527 0-20.173-16.354-36.525-36.528-36.525-20.172 0-36.525 16.352-36.525 36.525 0 10.087 4.087 19.217 10.699 25.827"/><path style="fill:#85c8eb" d="M313.628 118.757h12.39c11.628 0 21.044-9.423 21.044-21.045 0-3.906-1.079-7.544-2.931-10.679h43.846c11.624 0 21.045-9.423 21.045-21.046 0-11.624-9.42-21.046-21.045-21.046h-98.719c-11.625 0-21.046 9.423-21.046 21.046 0 3.903 1.08 7.547 2.931 10.679h-43.841c-11.628 0-21.049 9.423-21.049 21.046s9.423 21.045 21.049 21.045h59.651"/><path style="fill:#36cc6b" d="M280.322 411.961v-25.306a35.48 35.48 0 0 0-18.521-5.185c-9.755 0-18.59 3.914-25.032 10.256-3.757-20.818-21.956-36.613-43.853-36.613-18.447 0-34.258 11.213-41.031 27.191a35.677 35.677 0 0 0-7.646-.834c-9.752 0-18.589 3.914-25.032 10.256-3.756-20.818-21.951-36.613-43.852-36.613-24.277 0-44.006 19.415-44.548 43.565a27.848 27.848 0 0 0-9.283-1.589c-4.452 0-8.65 1.061-12.381 2.92v40.727a30.343 30.343 0 0 1 9.313-1.475c8.328 0 15.872 3.34 21.373 8.757 3.205-17.773 18.741-31.257 37.435-31.257.641 0 1.278.015 1.909.046a39.126 39.126 0 0 1 1.911-.046c18.299 0 33.56 12.918 37.208 30.133 10.434-20.271 31.547-34.147 55.918-34.147h122.992c-.032-.264-.077-.523-.115-.785h-16.765v-.001z"/><path style="fill:#b0e046" d="M118.294 446.894c-3.649-17.213-18.91-30.133-37.208-30.133-.641 0-1.278.015-1.911.046a38.953 38.953 0 0 0-1.909-.046c-18.694 0-34.229 13.483-37.435 31.257-5.501-5.416-13.045-8.757-21.373-8.757-3.252 0-6.375.529-9.313 1.475v62.659H111.345v-27.779a62.528 62.528 0 0 1 6.949-28.722z"/><path style="fill:#e8b143" d="M503.933 503.395v-90.169a63.318 63.318 0 0 0-7.638-.479H174.211c-34.723 0-62.868 28.15-62.868 62.868v27.779h392.59z"/><path style="fill:#231f20" d="M61.622 124.145c8.421 8.424 19.619 13.065 31.53 13.065 24.59 0 44.596-20.006 44.596-44.595 0-24.588-20.006-44.592-44.596-44.592-24.588 0-44.592 20.005-44.592 44.592 0 11.91 4.639 23.109 13.062 31.53zm31.531-59.988c15.693 0 28.461 12.766 28.461 28.458 0 15.693-12.768 28.46-28.461 28.46-7.6 0-14.746-2.961-20.122-8.338-5.376-5.375-8.336-12.521-8.336-20.122 0-15.692 12.765-28.458 28.458-28.458zM145.354 92.615a8.066 8.066 0 0 0 8.067 8.067h23.741a8.066 8.066 0 0 0 8.067-8.067 8.066 8.066 0 0 0-8.067-8.067h-23.741a8.066 8.066 0 0 0-8.067 8.067zM9.143 100.682h23.742a8.066 8.066 0 0 0 8.067-8.067 8.066 8.066 0 0 0-8.067-8.067H9.143a8.066 8.066 0 0 0-8.067 8.067 8.066 8.066 0 0 0 8.067 8.067zM135.77 58.066a8.043 8.043 0 0 0 5.705-2.363l16.788-16.79a8.064 8.064 0 0 0-.001-11.408 8.066 8.066 0 0 0-11.408.001l-16.79 16.79a8.064 8.064 0 0 0 5.706 13.77zM44.832 129.526l-16.787 16.79a8.064 8.064 0 0 0 .001 11.408c1.575 1.575 3.64 2.362 5.704 2.362s4.129-.787 5.705-2.363l16.787-16.79a8.064 8.064 0 0 0-.001-11.408 8.068 8.068 0 0 0-11.409.001zM93.153 40.413a8.067 8.067 0 0 0 8.067-8.067l.001-23.74A8.067 8.067 0 0 0 93.154.539a8.067 8.067 0 0 0-8.067 8.067l-.001 23.74a8.066 8.066 0 0 0 8.067 8.067zM85.086 152.883v23.742a8.066 8.066 0 0 0 8.067 8.067 8.066 8.066 0 0 0 8.067-8.067v-23.742a8.066 8.066 0 0 0-8.067-8.067 8.064 8.064 0 0 0-8.067 8.067zM44.832 55.704c1.576 1.575 3.641 2.362 5.705 2.362s4.129-.787 5.705-2.362a8.066 8.066 0 0 0 0-11.409L39.454 27.506a8.066 8.066 0 1 0-11.409 11.409l16.787 16.789zM130.065 129.528a8.064 8.064 0 0 0 .001 11.408l16.788 16.787a8.042 8.042 0 0 0 5.704 2.362 8.043 8.043 0 0 0 5.705-2.363 8.064 8.064 0 0 0-.001-11.408l-16.788-16.787a8.068 8.068 0 0 0-11.409.001zM227.302 126.824h59.651a8.066 8.066 0 0 0 8.067-8.067 8.066 8.066 0 0 0-8.067-8.067h-59.651c-7.158 0-12.982-5.821-12.982-12.977s5.823-12.979 12.982-12.979h43.839a8.067 8.067 0 0 0 6.946-12.171 12.766 12.766 0 0 1-1.809-6.574c0-7.156 5.822-12.979 12.979-12.979h98.719c7.155 0 12.976 5.822 12.976 12.979s-5.821 12.979-12.976 12.979H344.13a8.067 8.067 0 0 0-6.946 12.171 12.766 12.766 0 0 1 1.809 6.574c0 7.156-5.821 12.977-12.976 12.977h-12.39a8.066 8.066 0 0 0-8.067 8.067 8.066 8.066 0 0 0 8.067 8.067h12.39c16.053 0 29.111-13.06 29.111-29.112 0-.874-.04-1.745-.118-2.612h32.966c16.053 0 29.111-13.06 29.111-29.113s-13.059-29.113-29.111-29.113h-98.719c-16.054 0-29.113 13.06-29.113 29.113 0 .873.04 1.745.118 2.612h-32.959c-16.055 0-29.116 13.06-29.116 29.113s13.061 29.112 29.115 29.112zM504.906 405.218a71.658 71.658 0 0 0-8.612-.538h-16.709V281.841h23.441c.01-.002.015 0 .022 0a8.066 8.066 0 0 0 8.067-8.067 8.041 8.041 0 0 0-2.378-5.72l-126.93-143.261a8.07 8.07 0 0 0-12.076 0l-46.225 52.171v-33.808a8.066 8.066 0 0 0-8.067-8.067h-36.076a8.066 8.066 0 0 0-8.067 8.067v92.734l-28.826 32.535a8.068 8.068 0 0 0 6.037 13.417h23.746v92.852a43.774 43.774 0 0 0-10.454-1.291c-7.318 0-14.372 1.791-20.653 5.163a52.492 52.492 0 0 0-15.407-20.043v-19.256h12.37c4.456 0 8.067-3.611 8.067-8.067s-3.611-8.067-8.067-8.067h-12.37v-17.965h12.37a8.066 8.066 0 0 0 8.067-8.067 8.066 8.066 0 0 0-8.067-8.067h-12.37v-12.721a8.066 8.066 0 0 0-8.067-8.067 8.066 8.066 0 0 0-8.067 8.067v12.721h-29.847v-12.721c0-4.456-3.611-8.067-8.067-8.067s-8.067 3.611-8.067 8.067v12.721h-29.847v-12.721a8.066 8.066 0 0 0-8.067-8.067 8.066 8.066 0 0 0-8.067 8.067v12.721H87.797v-12.721a8.066 8.066 0 0 0-8.067-8.067 8.066 8.066 0 0 0-8.067 8.067v12.721H41.816v-12.721c0-4.456-3.611-8.067-8.067-8.067s-8.067 3.611-8.067 8.067v12.721H8.067A8.064 8.064 0 0 0 0 297.1a8.066 8.066 0 0 0 8.067 8.067h17.615v17.965H8.067c-4.456 0-8.067 3.611-8.067 8.067s3.611 8.067 8.067 8.067h17.615v42.991a52.219 52.219 0 0 0-1.891 6.837 36.39 36.39 0 0 0-2.267-.071 35.509 35.509 0 0 0-15.978 3.768 8.06 8.06 0 0 0-4.469 7.219v103.386a8.066 8.066 0 0 0 8.067 8.067H503.934a8.066 8.066 0 0 0 8.067-8.067v-90.169a8.069 8.069 0 0 0-7.095-8.009zM287.432 151.223h19.941v43.95l-19.941 22.506v-66.456zm176.019 124.739v127.933H426.51v-70.451c0-26.17-21.291-47.461-47.461-47.461h-6.562c-26.17 0-47.461 21.291-47.461 47.461v70.451H288.388V275.963l87.532-98.794 87.531 98.793zm-122.29 127.932v-70.451c0-17.274 14.053-31.327 31.327-31.327h6.562c17.274 0 31.327 14.053 31.327 31.327v70.451h-69.216zm34.609-261.587 109.332 123.401h-9.178L381.96 159.654a8.07 8.07 0 0 0-12.076 0l-93.963 106.054h-9.485L375.77 142.307zM209.606 349.753a52.651 52.651 0 0 0-16.691-2.708 52.72 52.72 0 0 0-13.156 1.681v-9.461h29.847v10.488zM87.797 339.266h29.847v29.051a52.618 52.618 0 0 0-29.847-19.782v-9.269zm45.981 0h29.847v16.673a52.56 52.56 0 0 0-16.369 17.568 43.81 43.81 0 0 0-13.478 1.174v-35.415zm75.828-34.1v17.965h-29.847v-17.965h29.847zm-45.981 0v17.965h-29.847v-17.965h29.847zm-45.981 0v17.965H87.797v-17.965h29.847zm-75.828 0h29.847v17.965H41.816v-17.965zm29.847 34.1v7.922a52.181 52.181 0 0 0-29.847 11.944v-19.866h29.847zM17.21 405.632a19.93 19.93 0 0 1 10.913.653 8.063 8.063 0 0 0 7.269-.971 8.062 8.062 0 0 0 3.479-6.456c.441-19.673 16.808-35.679 36.483-35.679 17.676 0 32.779 12.609 35.913 29.979a8.067 8.067 0 0 0 13.599 4.316c5.2-5.119 12.079-7.938 19.373-7.938 1.967 0 3.959.217 5.919.648a8.068 8.068 0 0 0 9.155-4.731c5.736-13.53 18.927-22.273 33.604-22.273 7.365 0 14.28 2.195 20.072 6.006.131.094.266.183.403.269 7.899 5.349 13.64 13.74 15.439 23.704a8.066 8.066 0 0 0 13.599 4.316c5.2-5.119 12.079-7.938 19.373-7.938 3.608 0 7.156.701 10.454 2.051v13.091h-98.044c-1.278 0-2.547.038-3.809.105-.465.025-.924.072-1.386.107-.785.057-1.572.112-2.35.195-.598.063-1.19.15-1.783.227-.623.083-1.246.16-1.863.258-.697.111-1.386.242-2.077.372-.485.093-.972.182-1.454.284-.795.168-1.583.355-2.371.549-.341.085-.683.169-1.022.258-.907.239-1.805.495-2.699.768l-.51.158a70.53 70.53 0 0 0-32.985 22.011c-.069-.108-.147-.209-.217-.315a46.92 46.92 0 0 0-1.223-1.775c-.089-.123-.173-.247-.264-.369a47.563 47.563 0 0 0-1.547-1.972c-.132-.16-.269-.317-.403-.475a45.68 45.68 0 0 0-1.402-1.576c-.117-.126-.231-.255-.35-.38a47.243 47.243 0 0 0-1.767-1.758c-.145-.137-.295-.27-.441-.404a47.4 47.4 0 0 0-1.563-1.375c-.145-.122-.287-.246-.433-.366a46.768 46.768 0 0 0-1.967-1.527c-.148-.11-.301-.214-.452-.322a47.258 47.258 0 0 0-1.725-1.179c-.168-.11-.335-.222-.504-.329a47.2 47.2 0 0 0-2.145-1.28c-.146-.082-.295-.158-.442-.239a45.928 45.928 0 0 0-1.885-.972c-.188-.091-.375-.185-.565-.274a47.26 47.26 0 0 0-2.303-1.014c-.131-.053-.266-.101-.397-.154a47.46 47.46 0 0 0-2.052-.755c-.204-.07-.409-.141-.614-.208a44.194 44.194 0 0 0-2.441-.727c-.104-.028-.211-.051-.315-.077a46.105 46.105 0 0 0-2.885-.644 46.164 46.164 0 0 0-2.557-.418c-.063-.009-.129-.013-.193-.022a46.649 46.649 0 0 0-3.111-.284 44.816 44.816 0 0 0-2.65-.087c-.64 0-1.278.013-1.911.038a48.354 48.354 0 0 0-1.909-.038 46.081 46.081 0 0 0-41.738 26.469c-5.245-2.597-11.056-3.969-17.07-3.969-.416 0-.83.008-1.246.02v-25.581h-.007zm0 41.746c.415-.024.83-.049 1.246-.049 2.933 0 5.784.565 8.426 1.638.044.018.087.035.13.054.612.253 1.212.535 1.801.842.068.035.134.072.202.109.57.305 1.128.636 1.673.992.069.045.137.092.204.139a22.63 22.63 0 0 1 1.59 1.165c.046.038.09.077.137.115.534.437 1.053.896 1.55 1.385.238.234.492.445.752.645.075.058.153.113.23.168.208.147.421.285.639.411.07.041.138.084.209.123.281.152.57.287.865.403.069.027.139.048.209.073a8.44 8.44 0 0 0 1.007.295c.28.062.561.112.848.144.035.004.071.012.108.016.264.026.529.04.795.04.04 0 .081-.009.122-.01.266-.003.531-.03.797-.061.123-.014.245-.018.367-.038.388-.062.773-.15 1.155-.27a8.068 8.068 0 0 0 5.498-6.257c2.574-14.266 14.978-24.621 29.496-24.621.506 0 1.009.012 1.507.035.267.014.535.013.803.001a29.644 29.644 0 0 1 4.047.075c.282.024.558.072.838.104.553.063 1.106.125 1.65.219.33.057.653.136.98.204.485.1.971.198 1.448.322.344.089.681.199 1.022.3.449.134.898.267 1.338.421.345.122.683.259 1.023.392.422.166.843.332 1.256.515.339.152.671.315 1.005.479.399.196.797.395 1.187.608.328.18.65.368.971.559a27.715 27.715 0 0 1 2.05 1.333 31.206 31.206 0 0 1 1.932 1.491c.336.282.663.572.986.868.276.253.551.507.817.77.315.311.618.631.92.956.253.271.506.542.749.823.294.34.572.693.851 1.047.226.287.455.57.671.866.273.374.527.762.783 1.148.196.296.398.585.583.888.255.416.487.849.722 1.279.159.292.328.575.478.873.247.493.468 1.001.688 1.51.11.252.233.496.336.751.31.77.591 1.556.837 2.358-.15.325-.276.656-.422.982a69.733 69.733 0 0 0-.742 1.73 73.542 73.542 0 0 0-1.247 3.261 67.96 67.96 0 0 0-.701 2.068c-.128.401-.25.807-.371 1.21-.232.774-.458 1.55-.664 2.331-.087.333-.166.669-.248 1.004-.208.841-.41 1.683-.586 2.532-.063.304-.115.612-.174.918a70.477 70.477 0 0 0-.471 2.628c-.053.342-.09.688-.139 1.032-.118.846-.238 1.693-.325 2.546-.053.51-.081 1.026-.123 1.539-.056.697-.124 1.392-.159 2.093a72.771 72.771 0 0 0-.098 3.718v19.713H17.21v-47.951zm478.656 47.95h-6.913c-27.681-36.198-54.476-53.391-55.635-54.125-3.758-2.379-8.733-1.265-11.122 2.492-2.386 3.757-1.274 8.741 2.48 11.133.234.15 20.702 13.357 43.587 40.5h-60.509c-27.681-36.198-54.476-53.391-55.635-54.125-3.758-2.379-8.733-1.265-11.122 2.492-2.386 3.757-1.274 8.741 2.48 11.133.234.15 20.702 13.357 43.587 40.5h-60.51c-27.681-36.198-54.476-53.391-55.635-54.125-3.757-2.379-8.733-1.265-11.122 2.492-2.386 3.757-1.274 8.741 2.48 11.133.234.15 20.702 13.357 43.587 40.5h-60.509c-27.681-36.198-54.476-53.391-55.635-54.125-3.758-2.379-8.733-1.265-11.122 2.492-2.386 3.757-1.274 8.741 2.48 11.133.234.15 20.702 13.357 43.587 40.5H119.411v-19.712c0-1.018.033-2.029.088-3.036.023-.413.062-.821.094-1.232.044-.577.09-1.153.152-1.725.056-.513.125-1.022.195-1.531a52.416 52.416 0 0 1 .5-3.023c.079-.402.166-.802.253-1.203.125-.569.251-1.137.393-1.699.099-.389.212-.777.319-1.164.154-.553.301-1.108.471-1.654.272-.871.565-1.738.882-2.598.132-.36.282-.712.422-1.068.232-.592.467-1.182.721-1.767.151-.349.312-.693.47-1.037.267-.583.543-1.163.831-1.738.222-.442.443-.884.677-1.319.088-.165.175-.329.265-.493 8.015-14.597 22.482-25.169 39.537-27.847.117-.018.234-.038.352-.055a55.268 55.268 0 0 1 2.561-.326c.042-.004.085-.006.127-.011a58.75 58.75 0 0 1 2.979-.212 55.209 55.209 0 0 1 2.515-.065h321.652v74.515z"/><path style="fill:#231f20" d="M356.918 243.503h36.571a8.066 8.066 0 0 0 8.067-8.067 8.066 8.066 0 0 0-8.067-8.067h-36.571a8.066 8.066 0 0 0-8.067 8.067 8.067 8.067 0 0 0 8.067 8.067zM356.918 263.582h36.571a8.066 8.066 0 0 0 8.067-8.067 8.066 8.066 0 0 0-8.067-8.067h-36.571a8.066 8.066 0 0 0-8.067 8.067 8.067 8.067 0 0 0 8.067 8.067zM356.918 347.046a8.066 8.066 0 0 0-8.067 8.067v15.853a8.066 8.066 0 0 0 8.067 8.067 8.066 8.066 0 0 0 8.067-8.067v-15.853a8.066 8.066 0 0 0-8.067-8.067z"/><g style="opacity:.1"><path style="fill:#231f20" d="M372.488 294.049c-21.759 0-39.394 17.636-39.394 39.394v78.518h25.208v-78.518c0-18.545 12.814-34.086 30.071-38.274a39.467 39.467 0 0 0-9.324-1.12h-6.561zM111.343 475.616v27.779h25.159v-27.779c0-34.718 28.145-62.868 62.867-62.868h-25.158c-34.723-.001-62.868 28.149-62.868 62.868zM17.285 395.036h17.21v106.799h-17.21z"/><path style="fill:#231f20" d="m389.446 187.732-12.88-11.409-70.932 80.044v-.461h-17.21v156.055h17.21V282.314z"/></g></svg>