<svg xmlns="http://www.w3.org/2000/svg" viewBox="0 0 512 512"><g data-name="Canned Food"><path d="M469.333 384c0-21.333-21.333-21.333-21.333-21.333v-21.334s21.333 0 21.333-21.333S448 298.667 448 298.667v-21.334H64v21.334s-21.333 0-21.333 21.333S64 341.333 64 341.333v21.334s-21.333 0-21.333 21.333S64 405.333 64 405.333v21.334s-21.333 0-21.333 21.333S64 469.333 64 469.333v21.334h384v-21.334s21.333 0 21.333-21.333S448 426.667 448 426.667v-21.334s21.333 0 21.333-21.333z" style="fill:#c11107"/><path d="M469.333 320H192s0-21.333 21.333-21.333H448c21.333 0 21.333 21.333 21.333 21.333zM469.333 384H192s0-21.333 21.333-21.333H448c21.333 0 21.333 21.333 21.333 21.333zM469.333 448H192s0-21.333 21.333-21.333H448c21.333 0 21.333 21.333 21.333 21.333z" style="fill:#c82e25"/><path style="fill:#af0a00" d="M298.667 341.333H448v21.333H298.667zM298.667 405.333H448v21.333H298.667z"/><path style="fill:#f59707" d="M149.333 341.333h213.333v85.333H149.333z"/><ellipse cx="256" cy="160" rx="192" ry="138.667" style="fill:#afa8a8"/><path d="M256 256c-89.333 0-149.333-49.635-149.333-96s60-96 149.333-96v21.333c-79.313 0-128 43.49-128 74.667s48.688 74.667 128 74.667zM256 298.667v-21.334c94.104 0 170.667-52.635 170.667-117.333S350.104 42.667 256 42.667V21.333c105.875 0 192 62.209 192 138.667s-86.125 138.667-192 138.667z" style="fill:#988f8f"/><path d="M256 277.333C155.417 277.333 85.333 215.5 85.333 160S155.417 42.667 256 42.667 426.667 104.5 426.667 160 356.583 277.333 256 277.333zM256 64c-85.48 0-149.333 50.688-149.333 96S170.52 256 256 256s149.333-50.688 149.333-96S341.48 64 256 64z" style="fill:#c5c0c0"/><path d="m125.333 116.01-16.208-13.854c18.813-22.02 47.125-39.666 79.75-49.687l6.25 20.396c-28.77 8.843-53.563 24.166-69.792 43.145z" style="fill:#edebeb"/><path d="M256 213.333c-51.042 0-85.333-27.573-85.333-53.333s34.291-53.333 85.333-53.333S341.333 134.24 341.333 160 307.042 213.333 256 213.333zM256 128c-39.063 0-64 18.948-64 32s24.938 32 64 32 64-18.948 64-32-24.938-32-64-32z" style="fill:#c5c0c0"/><path d="M192 160h-21.333c0-25.76 34.291-53.333 85.333-53.333V128c-39.063 0-64 18.948-64 32z" style="fill:#edebeb"/><path style="fill:#988f8f" d="M42.667 469.333h426.667v21.333H42.667zM42.667 277.333h426.667v21.333H42.667z"/><path d="M320 448c0-21.333-21.333-21.333-21.333-21.333v-21.334S320 405.333 320 384s-21.333-21.333-21.333-21.333v-21.334S320 341.333 320 320s-21.333-21.333-21.333-21.333v-21.334H64v21.334s-21.333 0-21.333 21.333S64 341.333 64 341.333v21.334s-21.333 0-21.333 21.333S64 405.333 64 405.333v21.334s-21.333 0-21.333 21.333S64 469.333 64 469.333v21.334h234.667v-21.334S320 469.333 320 448z" style="fill:#cd3e36"/><path d="M320 384H42.667s0-21.333 21.333-21.333h234.667C320 362.667 320 384 320 384zM320 448H42.667s0-21.333 21.333-21.333h234.667C320 426.667 320 448 320 448zM320 320H42.667s0-21.333 21.333-21.333h234.667C320 298.667 320 320 320 320z" style="fill:#d96c66"/><path style="fill:#d5d1d1" d="M42.667 469.333H320v21.333H42.667zM42.667 277.333H320v21.333H42.667z"/><circle cx="256" cy="384" r="64" style="fill:#f59707"/><path d="M298.667 362.667v-21.334a29.459 29.459 0 0 0 4.27-.55 64 64 0 1 0 0 86.434 29.459 29.459 0 0 0-4.27-.55v-21.334S320 405.333 320 384s-21.333-21.333-21.333-21.333z" style="fill:#fdbc34"/><path d="M149.333 341.333v85.334h149.334v-21.334S320 405.333 320 384s-21.333-21.333-21.333-21.333v-21.334z" style="fill:#fdbc34"/><path style="fill:#c11107" d="M64 341.333h85.333v21.333H64zM64 405.333h85.333v21.333H64z"/><path style="fill:#fdab00" d="M149.333 341.333h149.333v21.333H149.333z"/><path style="fill:#ef7f00" d="M298.667 341.333h64v21.333h-64zM298.667 405.333h64v21.333h-64z"/><path style="fill:#fdab00" d="M149.333 405.333h149.333v21.333H149.333z"/><path d="M320 384H149.333v-21.333h149.334C320 362.667 320 384 320 384zM149.333 405.333h149.333v21.333H149.333z" style="fill:#fdcf6d"/><path style="fill:#e59b96" d="M85.333 298.667H128V320H85.333zM85.333 362.667H128V384H85.333zM85.333 426.667H128V448H85.333z"/><path style="fill:#cd3e36" d="M362.667 298.667h42.667V320h-42.667zM362.667 362.667h42.667V384h-42.667zM362.667 426.667h42.667V448h-42.667z"/><path d="M256 192c-35.292 0-64-14.354-64-32s28.708-32 64-32v21.333c-22.458 0-36.875 6.573-41.542 10.667 4.667 4.094 19.084 10.667 41.542 10.667z" style="fill:#988f8f"/></g></svg>