<svg xmlns="http://www.w3.org/2000/svg" viewBox="0 0 512 512"><defs><style>.cls-3{fill:#db1b1b}.cls-4{fill:#fff}.cls-7{fill:#f55b4b}.cls-8{fill:#e0b14b}.cls-13{fill:#f6d372}</style></defs><circle cx="256" cy="256" r="256" style="fill:#fc4581" id="BULINE"/><g id="Icons"><path d="M477.64 384.18a256.07 256.07 0 0 1-443.28 0z" style="fill:#3e436d"/><path class="cls-3" d="m425 20.81-25.76 253.74-19.3-2 25.78-253.7a3.87 3.87 0 0 1 4.28-3.46l11.61 1.18a3.88 3.88 0 0 1 3.39 4.24z"/><path class="cls-4" d="m421.3 57.4-2.38 23.41-18.34-11.34 2.37-23.42L421.3 57.4zM417.17 98.05l-2.38 23.42-18.34-11.35 2.37-23.41 18.35 11.34zM413.04 138.71l-2.38 23.41-18.34-11.35 2.38-23.41 18.34 11.35zM408.91 179.36l-2.38 23.41-18.34-11.34 2.38-23.42 18.34 11.35zM404.78 220.01l-2.38 23.42-18.34-11.35 2.38-23.42 18.34 11.35z"/><path class="cls-4" d="M314.39 145.57h124.83a8.76 8.76 0 0 1 8.76 8.76v10.23H305.62v-10.23a8.76 8.76 0 0 1 8.77-8.76z"/><path style="fill:#e5e3e3" d="M305.62 157.25h142.36v7.3H305.62z"/><path class="cls-3" d="M425.34 423.25h-97.07a11.13 11.13 0 0 1-11.11-10.41l-15.25-231H451.7l-15.25 231a11.13 11.13 0 0 1-11.11 10.41z"/><path d="M450.11 206h-34.18a83.81 83.81 0 0 0-83.63 89.32l8.45 127.94h-12.49a11.12 11.12 0 0 1-11.1-10.4l-15.25-231H451.7z" style="fill:#c61a1a"/><rect class="cls-4" x="293.54" y="163.76" width="166.53" height="18.06" rx="9.03"/><path class="cls-4" d="M303 198.17s35.37 86.4 140.94 101.36L440.53 351s-83 1.69-132.45-61.26zM438.65 379.6s-70.81 6.86-126.58-33.51l2.12 28.15s65.53 29.44 123.33 22.42z"/><circle class="cls-7" cx="426.14" cy="255.75" r="12.51"/><circle class="cls-7" cx="426.14" cy="229.68" r="8.86"/><rect class="cls-8" x="84.48" y="311.96" width="286.46" height="78.13" rx="39.06"/><path d="M344.3 318.44a15.23 15.23 0 0 0-9.95 2.72 8 8 0 0 1-9.18-.07 15.25 15.25 0 0 0-17.3 0 8.16 8.16 0 0 1-9.28 0 15.25 15.25 0 0 0-17.3 0 8.16 8.16 0 0 1-9.28 0 15.25 15.25 0 0 0-17.3 0 8.18 8.18 0 0 1-9.29 0 15.25 15.25 0 0 0-17.3 0 8.16 8.16 0 0 1-9.28 0 15.25 15.25 0 0 0-17.3 0 8.18 8.18 0 0 1-9.29 0 15.25 15.25 0 0 0-17.3 0 8.16 8.16 0 0 1-9.28 0 15.25 15.25 0 0 0-17.3 0 8.18 8.18 0 0 1-9.29 0 15.25 15.25 0 0 0-17.3 0 8 8 0 0 1-9.18.07 15.2 15.2 0 0 0-9.94-2.72 15.3 15.3 0 1 0 14.48 22.81 15.29 15.29 0 0 0 26.59 0 15.28 15.28 0 0 0 26.58 0 15.29 15.29 0 0 0 26.59 0 15.28 15.28 0 0 0 26.58 0 15.28 15.28 0 0 0 26.58 0 15.29 15.29 0 0 0 26.59 0 15.28 15.28 0 0 0 26.58 0 15.29 15.29 0 0 0 26.59 0 15.29 15.29 0 1 0 14.48-22.81z" style="fill:#00b564"/><rect x="51.93" y="326.01" width="333.66" height="54.9" rx="27.45" style="fill:#e88032"/><path d="M382.19 366.72a27.51 27.51 0 0 1-24.05 14.2H79.38A27.45 27.45 0 0 1 60 334.06a27.8 27.8 0 0 1 6.76-5 27.46 27.46 0 0 0 24 40.7h278.78a27.37 27.37 0 0 0 12.65-3.04z" style="fill:#ce6d2c"/><rect x="69.84" y="345.12" width="286.46" height="78.13" rx="39.06" style="fill:#f6c752"/><path class="cls-8" d="M352.11 401.79a39.28 39.28 0 0 1-7.26 10 38.88 38.88 0 0 1-27.62 11.45H108.9a39.07 39.07 0 0 1-20.23-72.49 39.07 39.07 0 0 0 34.88 56.67h208.33a38.86 38.86 0 0 0 20.23-5.63z"/><circle class="cls-13" cx="318.95" cy="368.99" r="9.41"/><circle class="cls-13" cx="299.35" cy="368.99" r="6.66"/><path class="cls-3" d="M345.9 349h-2.19a9 9 0 0 1-9-9v-5.5a4.1 4.1 0 0 0-8.2 0v5.5a9 9 0 0 1-9 9h-2.19a9 9 0 0 1-9-9v-5.5a4.1 4.1 0 1 0-8.2 0v5.5a9 9 0 0 1-9 9H287a9 9 0 0 1-9-9v-5.5a4.1 4.1 0 1 0-8.19 0v5.5a9 9 0 0 1-9 9h-2.18a9 9 0 0 1-9-9v-5.5a4.1 4.1 0 0 0-8.2 0v5.5a9 9 0 0 1-9 9h-2.19a9 9 0 0 1-9-9v-5.5a4.1 4.1 0 1 0-8.2 0v5.5a9 9 0 0 1-9 9H202a9 9 0 0 1-9-9v-5.5a4.1 4.1 0 0 0-8.2 0v5.5a9 9 0 0 1-9 9h-2.18a9 9 0 0 1-9-9v-5.5a4.1 4.1 0 1 0-8.19 0v5.5a9 9 0 0 1-9 9h-2.18a9 9 0 0 1-9-9v-5.5a4.1 4.1 0 0 0-8.2 0v5.5a9 9 0 0 1-9 9h-2.19a9 9 0 0 1-9-9v-5.5a4.1 4.1 0 0 0-8.2 0v5.5a9 9 0 0 1-9 9h-2.08a9 9 0 0 1-9-9v-12a2.44 2.44 0 1 1 4.88 0v12a4.11 4.11 0 0 0 4.1 4.1h2.19a4.11 4.11 0 0 0 4.1-4.1v-5.5a9 9 0 0 1 18 0v5.5a4.11 4.11 0 0 0 4.1 4.1h2.19a4.11 4.11 0 0 0 4.1-4.1v-5.5a9 9 0 0 1 18 0v5.5a4.11 4.11 0 0 0 4.1 4.1h2.18a4.11 4.11 0 0 0 4.1-4.1v-5.5a9 9 0 0 1 18 0v5.5a4.11 4.11 0 0 0 4.1 4.1h2.18a4.11 4.11 0 0 0 4.1-4.1v-5.5a9 9 0 0 1 18 0v5.5a4.11 4.11 0 0 0 4.1 4.1h2.19a4.11 4.11 0 0 0 4.1-4.1v-5.5a9 9 0 1 1 18 0v5.5a4.11 4.11 0 0 0 4.1 4.1h2.19a4.11 4.11 0 0 0 4.1-4.1v-5.5a9 9 0 0 1 18 0v5.5a4.11 4.11 0 0 0 4.1 4.1h2.18A4.11 4.11 0 0 0 265 340v-5.5a9 9 0 0 1 18 0v5.5a4.11 4.11 0 0 0 4.1 4.1h2.18a4.11 4.11 0 0 0 4.1-4.1v-5.5a9 9 0 1 1 18 0v5.5a4.11 4.11 0 0 0 4.1 4.1h2.19a4.11 4.11 0 0 0 4.1-4.1v-5.5a9 9 0 0 1 18 0v5.5a4.11 4.11 0 0 0 4.1 4.1h2.19A4.11 4.11 0 0 0 350 340v-5.5a9 9 0 0 1 9-9h6.54a2.44 2.44 0 1 1 0 4.88H359a4.11 4.11 0 0 0-4.1 4.1V340a9 9 0 0 1-9 9z"/></g></svg>