<svg xmlns="http://www.w3.org/2000/svg" xml:space="preserve" width="2048" height="2048" style="shape-rendering:geometricPrecision;text-rendering:geometricPrecision;image-rendering:optimizeQuality;fill-rule:evenodd;clip-rule:evenodd"><defs><clipPath id="id0"><path d="M1024 0c565.539 0 1024 458.461 1024 1024s-458.461 1024-1024 1024S0 1589.539 0 1024 458.461 0 1024 0z"/></clipPath><style>.fil1{fill:#3949ab}.fil6{fill:#f4511e}.fil5{fill:#fbc02d}</style></defs><g id="Layer_x0020_1"><path d="M1024 0c565.539 0 1024 458.461 1024 1024s-458.461 1024-1024 1024S0 1589.539 0 1024 458.461 0 1024 0z" style="fill:#5c6bc0"/><g style="clip-path:url(#id0)"><g id="_341190856"><path id="_4558236881" class="fil1" d="M1579.25 517.105 2715.13 1652.99v46.67L1579.25 563.777z"/><path id="_455823832" class="fil1" d="M1579.25 563.777 2715.13 1699.66h-70.09L1509.16 563.777z"/><path id="_455824000" class="fil1" d="M1509.16 563.777 2645.04 1699.66l-50.77 223.73L1458.39 787.504z"/><path id="_455823880" class="fil1" d="M1584 787.504 2719.88 1923.39l-5.21 27.62L1578.79 815.124z"/><path id="_455823664" class="fil1" d="M1578.79 815.124 2714.67 1951.01l-101.21 536.72-1135.89-1135.89z"/><path id="_455824024" class="fil1" d="m1477.57 1351.84 1135.89 1135.89-3.6 19.05L1473.98 1370.9z"/><path id="_455824240" class="fil1" d="m1473.98 1370.9 1135.88 1135.88h-19.28L1454.69 1370.9z"/><path id="_455824432" class="fil1" d="m1020.6 1032.08 1135.88 1135.88 2.21 2.25 2.15 2.33 2.1 2.38 2.03 2.45 1.98 2.51 1.92 2.57 1.87 2.62 1.81 2.67 1.76 2.72-1135.88-1135.88-1.76-2.72-1.81-2.67-1.87-2.62-1.92-2.57-1.98-2.51-2.03-2.45-2.1-2.39-2.15-2.32z"/><path id="_455824384" class="fil1" d="m1038.43 1054.58 1135.88 1135.88 1.55 2.52 1.5 2.55 1.46 2.59 1.41 2.63 1.36 2.66 1.32 2.68 1.27 2.72 1.23 2.74 1.19 2.76 1.14 2.79 1.1 2.8 1.06 2.82 1.02 2.83.98 2.85.94 2.86.9 2.86.86 2.87.83 2.87.78 2.87.75 2.88.72 2.86.68 2.87.64 2.85.61 2.85.58 2.83.54 2.82.51 2.8.48 2.78.45 2.77.41 2.73.39 2.72.36 2.68-1135.88-1135.88-.36-2.68-.39-2.72-.42-2.74-.44-2.76-.48-2.78-.51-2.8-.54-2.82-.58-2.83-.61-2.85-.64-2.85-.68-2.87-.72-2.87-.75-2.87-.78-2.87-.83-2.88-.86-2.86-.9-2.87-.94-2.85-.98-2.85-1.02-2.83-1.06-2.82-1.1-2.81-1.14-2.78-1.19-2.76-1.23-2.74-1.27-2.72-1.32-2.69-1.36-2.65-1.41-2.63-1.46-2.59-1.5-2.55z"/><path id="_455824528" class="fil1" d="m1110.15 1153.58 1135.88 1135.88 1 1.3.93 1.35.87 1.39.81 1.43.74 1.47.68 1.5.61 1.53.55 1.56.49 1.57.42 1.6.35 1.61.3 1.62.22 1.63.16 1.64.1 1.63.03 1.64v23.17l-.03 1.63-.1 1.64-.16 1.63-.22 1.63-.3 1.63-.35 1.61-.42 1.59-.49 1.58-.55 1.55-.61 1.53-.68 1.5-.74 1.47-.81 1.43-.87 1.39-.93 1.35-1 1.3-.95 1.13-.99 1.08-1.04 1.02-1.07.97-1.12.91-1.15.85-1.19.78-1.23.71-1.26.64-1.3.57-1.33.48-1.37.41-1.4.32-1.43.23-1.46.15-1.49.04h-23.5L1066.86 1235.97h23.51l1.49-.05 1.46-.14 1.43-.23 1.4-.32 1.37-.41 1.33-.49 1.3-.56 1.26-.64 1.23-.71 1.19-.79 1.15-.84 1.12-.91 1.07-.97 1.03-1.02 1-1.08.95-1.13 1-1.3.93-1.35.87-1.39.81-1.43.74-1.47.68-1.5.61-1.53.55-1.55.49-1.58.42-1.6.35-1.61.29-1.62.23-1.63.16-1.63.1-1.64.03-1.63v-23.17l-.03-1.64-.1-1.63-.16-1.64-.23-1.63-.29-1.62-.35-1.61-.42-1.6-.49-1.58-.55-1.55-.61-1.53-.68-1.5-.74-1.47-.81-1.43-.87-1.39-.93-1.35z"/><path id="_455824792" class="fil1" d="m1107.17 1150.35 1135.88 1135.88 1.04 1.02.99 1.08.95 1.13-1135.88-1135.88-.95-1.13-.99-1.08z"/><path id="_455824168" class="fil1" d="m1454.69 1370.9 1135.89 1135.88h-251.03L1203.67 1370.9z"/><path id="_455824696" class="fil1" d="m1066.86 1235.97 1135.89 1135.88-.39 2.6-.41 2.61-.44 2.64-.47 2.65-.49 2.67-.53 2.68-.55 2.7-.59 2.7-.62 2.72-.65 2.72-.68 2.73-.71 2.73-.75 2.73-.78 2.73-.81 2.72-.85 2.73-.88 2.71-.92 2.71-.96 2.7-.99 2.68-1.03 2.67-1.07 2.66-1.11 2.64-1.14 2.61-1.19 2.6-1.22 2.57-1.26 2.55-1.31 2.51-1.35 2.49-1.38 2.46-1.43 2.43-1.48 2.38L1038.43 1320.4l1.47-2.39 1.44-2.42 1.38-2.46 1.35-2.49 1.3-2.52 1.27-2.54 1.22-2.58 1.19-2.59 1.14-2.62 1.11-2.63 1.07-2.66 1.03-2.67.99-2.68.95-2.7.92-2.71.89-2.72.85-2.72.81-2.73.78-2.73.75-2.73.71-2.73.68-2.72.65-2.73.62-2.71.59-2.71.55-2.69.53-2.69.49-2.66.47-2.66.44-2.63.41-2.62z"/><path id="_455824336" class="fil1" d="m1203.67 1370.9 1135.88 1135.88h-19.29L1184.38 1370.9z"/><path id="_455824600" class="fil1" d="m1038.43 1320.4 1135.88 1135.88-1.76 2.73-1.81 2.67-1.87 2.62-1.92 2.57-1.98 2.51-2.03 2.44-2.1 2.39-2.15 2.32-2.21 2.26-2.27 2.19-2.32 2.11-2.4 2.05-2.45 1.96-2.51 1.89-2.58 1.81-2.64 1.72-2.7 1.63-2.77 1.55-2.83 1.46-2.9 1.37-2.97 1.27-3.04 1.17-3.1 1.07-3.17.97-3.24.86-3.32.76-3.38.65-3.45.53-3.53.42-3.6.3-3.67.19-3.75.06L952.008 1370.9l3.748-.07 3.673-.18 3.6-.3 3.527-.42 3.453-.54 3.384-.64 3.312-.76 3.241-.86 3.172-.97 3.103-1.07 3.036-1.18 2.968-1.27 2.899-1.36 2.835-1.46 2.771-1.55 2.7-1.63 2.64-1.73 2.58-1.8 2.51-1.89 2.45-1.97 2.39-2.04 2.33-2.11 2.27-2.19 2.21-2.26 2.15-2.32 2.1-2.39 2.03-2.45 1.98-2.51 1.92-2.56 1.87-2.62 1.81-2.67z"/><path id="_455824888" class="fil1" d="M515.547 1235.97 1651.43 2371.85h-23.5l-1.5-.04-1.46-.15-1.43-.23-1.4-.32-1.36-.41-1.34-.48-1.3-.57-1.26-.64-1.23-.71-1.19-.78-1.15-.85-1.12-.91L476.312 1229.88l1.115.91 1.153.85 1.19.78 1.228.71 1.264.64 1.299.56 1.334.49 1.366.41 1.4.32 1.432.23 1.461.14 1.491.05z"/><path id="_455825464" class="fil1" d="M630.403 1370.9 1766.28 2506.78l-3.74-.06-3.68-.19-3.6-.3-3.52-.42-3.46-.53-3.38-.65-3.31-.76-3.24-.86-3.18-.97-3.1-1.07-3.04-1.17-2.96-1.27-2.9-1.37-2.84-1.46-2.77-1.55-2.7-1.63-2.64-1.72-2.58-1.81-2.51-1.89-2.45-1.96L568.797 1349.25l2.452 1.97 2.513 1.89 2.576 1.8 2.64 1.73 2.705 1.63 2.768 1.55 2.835 1.46 2.901 1.36 2.967 1.27 3.035 1.18 3.103 1.07 3.172.97 3.242.86 3.312.76 3.383.64 3.455.54 3.526.42 3.6.3 3.674.18z"/><path id="_455825128" class="fil1" d="M952.008 1370.9 2087.89 2506.78h-321.61L630.403 1370.9z"/><path id="_341190496" class="fil1" d="M1490.59 517.105h88.654v46.672h-70.093l-50.763 223.727h125.607l-5.207 27.62-101.218 536.72-3.593 19.052H1184.374l-3.593-19.052-101.217-536.72-5.209-27.62h336.322l57.215-252.167 4.137-18.232h18.562zm-538.587 486.983c40.372 0 67.951 21.196 86.422 50.493 16.783 26.62 25.359 60.224 29.015 88.71h22.921c8.035 0 14.828 4.146 19.782 10.287 5.496 6.809 8.264 15.772 8.264 24.468v23.172c0 8.695-2.77 17.655-8.265 24.464-4.952 6.137-11.75 10.29-19.781 10.29h-23.502c-3.947 27.528-12.484 59.134-28.433 84.43-18.472 29.298-46.05 50.494-86.423 50.494H630.398c-40.374 0-67.952-21.196-86.421-50.494-15.951-25.297-24.488-56.902-28.435-84.43H492.04c-8.033 0-14.831-4.15-19.785-10.289-5.495-6.81-8.262-15.769-8.262-24.465v-23.173c0-8.696 2.763-17.66 8.261-24.47 4.956-6.141 11.75-10.284 19.786-10.284h22.92c3.657-28.487 12.233-62.09 29.017-88.71 18.47-29.297 46.047-50.493 86.42-50.493h321.606z"/></g></g><path d="M1024 0c565.539 0 1024 458.461 1024 1024s-458.461 1024-1024 1024S0 1589.539 0 1024 458.461 0 1024 0z" style="fill:none"/><path style="fill:#c0ca33;fill-rule:nonzero" d="m1408.78 795.876 59.12-260.54 4.13-18.231h107.22v46.672h-70.09l-52.67 232.099z"/><path style="fill:#dce775;fill-rule:nonzero" d="M1102.45 787.504H1584l-5.21 27.62-101.22 536.716-3.59 19.06h-289.6l-3.59-19.06-101.22-536.716-5.21-27.62z"/><path class="fil5" d="M513.944 1222.61h554.523c-2.914 30.19-11.433 68.28-30.037 97.788-18.47 29.298-46.05 50.494-86.422 50.494H630.403c-40.374 0-67.952-21.197-86.421-50.495-18.605-29.506-27.124-67.597-30.038-97.787z"/><path class="fil6" d="M821.123 1299.08c-8.262 0-14.959-8.298-14.959-18.535 0-10.238 6.697-18.535 14.959-18.535 8.26 0 14.956 8.297 14.956 18.535 0 10.236-6.697 18.535-14.956 18.535zM716.415 1299.07c-8.26 0-14.957-8.298-14.957-18.535S708.154 1262 716.414 1262c8.26 0 14.957 8.298 14.957 18.535 0 10.236-6.696 18.535-14.957 18.535zM641.623 1317.61c-8.26 0-14.957-8.298-14.957-18.535s6.696-18.535 14.957-18.535c8.262 0 14.959 8.298 14.959 18.535 0 10.236-6.697 18.535-14.959 18.535zM948.858 1317.61c-8.26 0-14.959-8.298-14.959-18.535s6.698-18.535 14.959-18.535c8.262 0 14.959 8.298 14.959 18.535 0 10.236-6.697 18.535-14.959 18.535zM874.066 1336.15c-8.26 0-14.956-8.298-14.956-18.535 0-10.238 6.695-18.535 14.956-18.535 8.262 0 14.959 8.297 14.959 18.535 0 10.237-6.697 18.535-14.959 18.535z"/><path class="fil5" d="M1038.43 1054.58c18.604 29.509 27.123 67.6 30.037 97.79H513.944c2.913-30.19 11.433-68.281 30.037-97.79 18.472-29.297 46.048-50.493 86.422-50.493h321.605c40.372 0 67.95 21.196 86.422 50.493z"/><path d="M492.045 1143.29c-8.036 0-14.83 4.142-19.786 10.283-5.498 6.811-8.26 15.774-8.26 24.471v23.172c0 8.697 2.766 17.656 8.261 24.465 4.954 6.14 11.752 10.29 19.785 10.29h598.321c8.032 0 14.829-4.154 19.781-10.29 5.495-6.81 8.266-15.77 8.266-24.465v-23.172c0-8.695-2.769-17.659-8.265-24.468-4.954-6.14-11.747-10.286-19.782-10.286h-598.32z" style="fill:#f57f17"/><path class="fil6" d="M851.431 1063.7c8.262 0 14.959 8.298 14.959 18.535s-6.697 18.536-14.959 18.536c-8.26 0-14.956-8.3-14.956-18.536s6.695-18.535 14.956-18.535zM948.857 1063.7c8.262 0 14.959 8.298 14.959 18.535s-6.697 18.536-14.959 18.536c-8.26 0-14.957-8.3-14.957-18.536s6.696-18.535 14.957-18.535zM596.748 1082.24c8.26 0 14.959 8.298 14.959 18.535s-6.698 18.535-14.959 18.535c-8.26 0-14.957-8.298-14.957-18.535s6.698-18.535 14.957-18.535zM754.007 1063.7c8.26 0 14.959 8.298 14.959 18.535s-6.7 18.536-14.959 18.536c-8.26 0-14.957-8.3-14.957-18.536s6.696-18.535 14.957-18.535zM656.581 1063.7c8.26 0 14.959 8.298 14.959 18.535s-6.698 18.536-14.959 18.536c-8.26 0-14.957-8.3-14.957-18.536s6.696-18.535 14.957-18.535z"/></g></svg>